<svg width="218.1" height="64.301" viewBox="0 0 218.1 64.301" xmlns="http://www.w3.org/2000/svg"><g id="svgGroup" stroke-linecap="round" fill-rule="evenodd" font-size="9pt" stroke="#b9eb45" stroke-width="0.55mm" fill="#000000" style="stroke:#b9eb45;stroke-width:0.55mm;fill:#000000"><path d="M 48.1 33.6 L 59.7 63.5 L 37.4 63.5 L 28.6 35.8 L 27.5 35.8 L 21.6 63.5 L 0 63.5 L 13.5 0 L 39.8 0 A 68.837 68.837 0 0 1 45.889 0.26 A 58.731 58.731 0 0 1 48.5 0.55 Q 52.6 1.1 55.65 2.75 Q 58.7 4.4 60.5 7.35 A 11.264 11.264 0 0 1 61.762 10.403 Q 62.128 11.811 62.245 13.475 A 23.135 23.135 0 0 1 62.3 15.1 Q 62.3 21 59 26 Q 55.7 31 48.1 33.6 Z M 127.5 63.5 L 120.6 20.5 L 141.8 20.5 L 145.9 49.9 L 160.5 20.5 L 171.1 20.5 L 148.4 63.5 L 127.5 63.5 Z M 167.5 63.5 L 176.6 20.5 L 192.9 20.5 L 194.4 28 L 195.1 28 Q 197.4 24.4 201 21.9 A 13.079 13.079 0 0 1 205.156 20.03 Q 206.924 19.562 209.011 19.442 A 25.825 25.825 0 0 1 210.5 19.4 Q 210.9 19.4 211.75 19.45 A 9.174 9.174 0 0 1 212.591 19.541 Q 213.03 19.608 213.511 19.718 A 15.371 15.371 0 0 1 213.65 19.75 A 15.415 15.415 0 0 1 215.002 20.141 A 18.873 18.873 0 0 1 215.85 20.45 Q 217 20.9 218.1 21.7 L 213.7 42.3 L 202.8 42.3 Q 202.6 36.1 201.7 33.65 Q 201.185 32.248 200.31 31.648 A 2.606 2.606 0 0 0 198.8 31.2 A 5.108 5.108 0 0 0 197.695 31.327 Q 197.189 31.439 196.65 31.65 Q 195.833 31.97 194.99 32.82 A 9.84 9.84 0 0 0 194.3 33.6 L 187.9 63.5 L 167.5 63.5 Z M 99.101 19.723 A 53.426 53.426 0 0 0 93 19.4 A 57.523 57.523 0 0 0 87.882 19.618 Q 83.818 19.981 80.421 20.95 A 26.024 26.024 0 0 0 73 24.3 Q 68 27.8 65.35 33.1 A 24.26 24.26 0 0 0 63.734 37.249 A 27.542 27.542 0 0 0 62.7 44.9 A 31.905 31.905 0 0 0 62.731 46.309 Q 63.117 55.059 68.4 59.6 Q 73.7 64.3 86 64.3 Q 93.875 64.3 99.716 62.386 A 24.578 24.578 0 0 0 108 57.9 A 20.759 20.759 0 0 0 110.412 55.425 A 23.127 23.127 0 0 0 113.9 49.55 A 26.321 26.321 0 0 0 115.407 44.541 A 32.615 32.615 0 0 0 116 38.2 Q 116 33.419 114.748 29.912 A 13.476 13.476 0 0 0 110.3 23.6 A 13.552 13.552 0 0 0 109.229 22.849 Q 105.45 20.456 99.101 19.723 Z M 86.2 57.5 Q 88.7 57.5 90.55 54.7 Q 92.4 51.9 93.5 47.85 Q 94.6 43.8 95.15 39.45 Q 95.571 36.12 95.67 33.463 A 42.152 42.152 0 0 0 95.7 31.9 A 23.101 23.101 0 0 0 95.656 30.432 Q 95.545 28.692 95.15 27.65 A 2.173 2.173 0 0 0 94.497 26.711 Q 94.094 26.384 93.511 26.266 A 3.598 3.598 0 0 0 92.8 26.2 Q 90.1 26.2 88.15 29.1 A 22.552 22.552 0 0 0 86.194 32.711 A 29.624 29.624 0 0 0 85 36 Q 83.8 40 83.25 44.2 Q 82.712 48.307 82.7 50.884 A 25.086 25.086 0 0 0 82.7 51 A 18.039 18.039 0 0 0 82.822 53.204 Q 83.103 55.465 84.024 56.536 A 2.731 2.731 0 0 0 86.2 57.5 Z M 28.8 29.4 L 33.5 29.4 Q 36.1 29.4 37.95 27.65 A 13.369 13.369 0 0 0 40.642 24.032 A 15.534 15.534 0 0 0 40.95 23.4 Q 42.1 20.9 42.6 18.05 A 39.144 39.144 0 0 0 42.905 16.018 Q 43.1 14.413 43.1 13.1 A 12.567 12.567 0 0 0 42.94 11.04 Q 42.748 9.885 42.325 8.921 A 7.558 7.558 0 0 0 42.2 8.65 A 2.997 2.997 0 0 0 40.46 7.13 Q 39.567 6.8 38.3 6.8 L 33.8 6.8 L 28.8 29.4 Z" vector-effect="non-scaling-stroke"/></g></svg>